<?xml version="1.0" encoding="UTF-8" standalone="no"?>
<!-- Created with Inkscape (http://www.inkscape.org/) -->

<svg xmlns:dc="http://purl.org/dc/elements/1.1/" xmlns:cc="http://creativecommons.org/ns#" xmlns:rdf="http://www.w3.org/1999/02/22-rdf-syntax-ns#" xmlns:svg="http://www.w3.org/2000/svg" xmlns="http://www.w3.org/2000/svg" xmlns:sodipodi="http://sodipodi.sourceforge.net/DTD/sodipodi-0.dtd" xmlns:inkscape="http://www.inkscape.org/namespaces/inkscape" id="svg2985" version="1.1" inkscape:version="0.48.5 r10040" width="201.8125" height="116" sodipodi:docname="Batman_logo.png">
  <metadata id="metadata2991">
    <rdf:RDF>
      <cc:Work rdf:about="">
        <dc:format>image/svg+xml</dc:format>
        <dc:type rdf:resource="http://purl.org/dc/dcmitype/StillImage" />
        <dc:title></dc:title>
      </cc:Work>
    </rdf:RDF>
  </metadata>
  <defs id="defs2989" />
  <sodipodi:namedview pagecolor="#ffffff" bordercolor="#666666" borderopacity="1" objecttolerance="10" gridtolerance="10" guidetolerance="10" inkscape:pageopacity="0" inkscape:pageshadow="2" inkscape:window-width="1366" inkscape:window-height="706" id="namedview2987" showgrid="false" fit-margin-top="0" fit-margin-left="0" fit-margin-right="0" fit-margin-bottom="0" inkscape:zoom="1.439658" inkscape:cx="253.1273" inkscape:cy="36.804314" inkscape:window-x="-8" inkscape:window-y="-8" inkscape:window-maximized="1" inkscape:current-layer="svg2985" />
  <g id="g3005" transform="translate(-3.125,-1.9375)">
    <path inkscape:connector-curvature="0" id="path2997" d="m 6.1117671,59.942193 c 0,30.378852 43.8338399,55.005787 97.9056029,55.005787 54.07176,0 97.90559,-24.626935 97.90559,-55.005787 0,-30.378852 -43.83383,-55.0057776 -97.90559,-55.0057776 -54.071763,0 -97.9056029,24.6269256 -97.9056029,55.0057776 z" style="fill:yellow;fill-opacity:1;fill-rule:evenodd;stroke:black;stroke-width:5.99999905;stroke-opacity:1" />
    <path id="path3000" d="M 95.1875,15.75 94.03125,33.625 C 91.523414,40.894814 81.097639,53.813548 67,43.03125 63.403927,38.879992 61.501787,32.897663 67.21875,18.8125 c 0,0 -51,9.917341 -51,40.90625 0,23.435421 32.4375,36.1875 32.4375,36.1875 -2.144289,-4.359243 -4.850788,-8.14568 -4,-15.5 2.971764,-7.409197 8.236151,-5.902438 12.9375,-4.9375 4.727059,1.098206 9.709899,5.90342 13.875,8.6875 1.65244,-2.190479 3.031089,-4.530257 5.875,-6.125 6.453832,-4.889759 9.206542,-1.650564 12.6875,0 10.38376,6.377451 10.28112,15.393829 13.875,23.46875 l 0,0.53125 c 0.0378,-0.0807 0.0567,-0.16905 0.0937,-0.25 0.0387,0.0846 0.0855,0.16559 0.125,0.25 l 0,-0.53125 c 3.59388,-8.074921 3.49123,-17.091299 13.875,-23.46875 3.48095,-1.650564 6.23367,-4.889759 12.6875,0 2.84391,1.594743 4.22256,3.934521 5.875,6.125 4.1651,-2.78408 9.14794,-7.589294 13.875,-8.6875 4.70135,-0.964938 8.98342,-2.226115 12.9375,4.9375 0.85079,7.35432 -1.85571,11.140757 -4,15.5 0,0 32.4375,-12.752079 32.4375,-36.1875 0,-30.988909 -51,-40.90625 -51,-40.90625 5.71696,14.085163 3.81483,20.067492 0.21875,24.21875 C 126.93362,53.813548 116.50784,40.894814 114,33.625 l -1.15625,-17.875 -4.9375,8.28125 -3.78125,0 -0.21875,0 -3.78125,0 z" style="fill:black;stroke:none" inkscape:connector-curvature="0" sodipodi:nodetypes="ccccscccccccccccccccccsccccccccc" />
  </g>
</svg>
